<?xml version="1.0" encoding="UTF-8" standalone="no"?>
<!-- Created with Inkscape (http://www.inkscape.org/) -->

<svg
   width="512"
   height="512"
   viewBox="0 0 512 512"
   version="1.1"
   id="svg1"
   xml:space="preserve"
   inkscape:version="1.4.2 (f4327f4, 2025-05-13)"
   sodipodi:docname="heated.svg"
   xmlns:inkscape="http://www.inkscape.org/namespaces/inkscape"
   xmlns:sodipodi="http://sodipodi.sourceforge.net/DTD/sodipodi-0.dtd"
   xmlns="http://www.w3.org/2000/svg"
   xmlns:svg="http://www.w3.org/2000/svg"><sodipodi:namedview
     id="namedview1"
     pagecolor="#ffffff"
     bordercolor="#000000"
     borderopacity="0.25"
     inkscape:showpageshadow="2"
     inkscape:pageopacity="0.0"
     inkscape:pagecheckerboard="0"
     inkscape:deskcolor="#d1d1d1"
     inkscape:document-units="px"
     inkscape:zoom="0.81738281"
     inkscape:cx="231.83751"
     inkscape:cy="-76.46356"
     inkscape:window-width="1920"
     inkscape:window-height="1017"
     inkscape:window-x="-8"
     inkscape:window-y="-8"
     inkscape:window-maximized="1"
     inkscape:current-layer="layer1" /><defs
     id="defs1" /><g
     inkscape:label="Layer 1"
     inkscape:groupmode="layer"
     id="layer1"><rect
       style="fill:#cb7b44;fill-opacity:1;stroke:none;stroke-width:40;stroke-linecap:round;stroke-opacity:1"
       id="rect1"
       width="408.00955"
       height="75.851852"
       x="51.995224"
       y="349.28555"
       ry="37.925926" /><g
       id="g4"
       transform="translate(3.6687676)"><path
         style="fill:none;fill-opacity:1;stroke:#cb7b44;stroke-width:40;stroke-linecap:round;stroke-opacity:1"
         d="m 141.53517,326.03457 c 0,0 -15.4261,-34.29366 -15.9045,-52.60693 -0.7129,-27.28931 20.7534,-52.24894 19.5747,-79.5221 -0.9299,-21.51653 -19.7578,-39.65937 -20.7981,-61.17085 -1.0321,-21.34111 14.681,-62.394257 14.681,-62.394257"
         id="path2"
         sodipodi:nodetypes="csssc" /><path
         style="fill:none;fill-opacity:1;stroke:#cb7b44;stroke-width:40;stroke-linecap:round;stroke-opacity:1"
         d="m 259.06755,326.03457 c 0,0 -15.4261,-34.29366 -15.9045,-52.60693 -0.7129,-27.28931 20.7534,-52.24894 19.5747,-79.5221 -0.9299,-21.51653 -19.7578,-39.65937 -20.7981,-61.17085 -1.0321,-21.34111 14.681,-62.394257 14.681,-62.394257"
         id="path2-2"
         sodipodi:nodetypes="csssc" /><path
         style="fill:none;fill-opacity:1;stroke:#cb7b44;stroke-width:40;stroke-linecap:round;stroke-opacity:1"
         d="m 376.59994,326.03457 c 0,0 -15.4261,-34.29366 -15.9045,-52.60693 -0.7129,-27.28931 20.7534,-52.24894 19.5747,-79.5221 -0.9299,-21.51653 -19.7578,-39.65937 -20.7981,-61.17085 -1.0321,-21.34111 14.681,-62.394257 14.681,-62.394257"
         id="path2-0"
         sodipodi:nodetypes="csssc" /></g><ellipse
       style="fill:#348f42;fill-opacity:1;stroke:none;stroke-width:17.4583;stroke-linecap:round;stroke-opacity:1"
       id="path3"
       cx="436.271"
       cy="265.73874"
       rx="66.830292"
       ry="64.187294" /><path
       style="fill:none;fill-opacity:1;stroke:#ffffff;stroke-width:40;stroke-linecap:round;stroke-linejoin:round;stroke-opacity:1"
       d="m 408.75334,285.47852 26.81768,13.84138 23.35733,-63.58385"
       id="path4"
       sodipodi:nodetypes="ccc" /></g></svg>
