<?xml version="1.0" encoding="UTF-8" standalone="no"?>
<!-- Created with Inkscape (http://www.inkscape.org/) -->

<svg
   width="512"
   height="512"
   viewBox="0 0 512 512"
   version="1.1"
   id="svg1"
   xml:space="preserve"
   inkscape:version="1.4.2 (f4327f4, 2025-05-13)"
   sodipodi:docname="offine.svg"
   xmlns:inkscape="http://www.inkscape.org/namespaces/inkscape"
   xmlns:sodipodi="http://sodipodi.sourceforge.net/DTD/sodipodi-0.dtd"
   xmlns="http://www.w3.org/2000/svg"
   xmlns:svg="http://www.w3.org/2000/svg"><sodipodi:namedview
     id="namedview1"
     pagecolor="#ffffff"
     bordercolor="#000000"
     borderopacity="0.25"
     inkscape:showpageshadow="2"
     inkscape:pageopacity="0.0"
     inkscape:pagecheckerboard="0"
     inkscape:deskcolor="#d1d1d1"
     inkscape:document-units="px"
     inkscape:zoom="1.6347656"
     inkscape:cx="382.01195"
     inkscape:cy="301.87814"
     inkscape:window-width="1920"
     inkscape:window-height="1017"
     inkscape:window-x="-8"
     inkscape:window-y="-8"
     inkscape:window-maximized="1"
     inkscape:current-layer="layer1" /><defs
     id="defs1"><clipPath
       clipPathUnits="userSpaceOnUse"
       id="clipPath3"><rect
         style="fill:none;stroke:#53e2f6;stroke-width:40;stroke-linecap:round;stroke-linejoin:round"
         id="rect3"
         width="496.70752"
         height="528.51611"
         x="-491.44296"
         y="89.56237"
         ry="18.395172"
         transform="rotate(-45)" /></clipPath><clipPath
       clipPathUnits="userSpaceOnUse"
       id="clipPath45"><path
         style="fill:none;stroke:#53e2f6;stroke-width:40;stroke-linecap:round;stroke-linejoin:round"
         d="M 276.49223,-74.628434 616.60215,267.92832 850.27479,97.873356 428.19594,-179.84229 Z"
         id="path46" /></clipPath></defs><g
     inkscape:label="Layer 1"
     inkscape:groupmode="layer"
     id="layer1"><g
       id="g2"
       clip-path="url(#clipPath3)"
       transform="translate(-13.396107,14.38847)"><rect
         style="fill:#cb7b44;fill-opacity:1;stroke:none;stroke-width:40;stroke-linecap:round;stroke-opacity:1"
         id="rect1"
         width="408.00955"
         height="75.851852"
         x="51.995224"
         y="349.28555"
         ry="37.925926" /><g
         id="g4"
         transform="translate(3.6687676)"><path
           style="fill:none;fill-opacity:1;stroke:#cb7b44;stroke-width:40;stroke-linecap:round;stroke-opacity:1"
           d="m 141.53517,326.03457 c 0,0 -15.4261,-34.29366 -15.9045,-52.60693 -0.7129,-27.28931 20.7534,-52.24894 19.5747,-79.5221 -0.9299,-21.51653 -19.7578,-39.65937 -20.7981,-61.17085 -1.0321,-21.34111 14.681,-62.394257 14.681,-62.394257"
           id="path2"
           sodipodi:nodetypes="csssc" /><path
           style="fill:none;fill-opacity:1;stroke:#cb7b44;stroke-width:40;stroke-linecap:round;stroke-opacity:1"
           d="m 259.06755,326.03457 c 0,0 -15.4261,-34.29366 -15.9045,-52.60693 -0.7129,-27.28931 20.7534,-52.24894 19.5747,-79.5221 -0.9299,-21.51653 -19.7578,-39.65937 -20.7981,-61.17085 -1.0321,-21.34111 14.681,-62.394257 14.681,-62.394257"
           id="path2-2"
           sodipodi:nodetypes="csssc" /><path
           style="fill:none;fill-opacity:1;stroke:#cb7b44;stroke-width:40;stroke-linecap:round;stroke-opacity:1"
           d="m 376.59994,326.03457 c 0,0 -15.4261,-34.29366 -15.9045,-52.60693 -0.7129,-27.28931 20.7534,-52.24894 19.5747,-79.5221 -0.9299,-21.51653 -19.7578,-39.65937 -20.7981,-61.17085 -1.0321,-21.34111 14.681,-62.394257 14.681,-62.394257"
           id="path2-0"
           sodipodi:nodetypes="csssc" /></g></g><path
       id="path44"
       style="baseline-shift:baseline;display:inline;overflow:visible;opacity:1;vector-effect:none;fill:#53e2f6;stroke-linecap:round;stroke-linejoin:round;enable-background:accumulate;stop-color:#000000;stop-opacity:1"
       d="m 491.72882,-95.580305 c -1.07986,0.02329 -2.15703,0.117237 -3.22461,0.28125 -4.29374,0.657797 -8.33874,2.434091 -11.72852,5.150391 l -37.19922,29.810547 -30.27539,-27.609375 c -3.21011,-2.928365 -7.1346,-4.959994 -11.3789,-5.890625 -2.11272,-0.46279 -4.27699,-0.646648 -6.4375,-0.546875 -6.55638,0.302624 -12.72408,3.197132 -17.14649,8.046875 -9.20989,10.099309 -8.48936,25.752379 1.60938,34.96289 l 37.9707,34.628906 -0.45666,80.016948 -56.1449,-40.223978 -8.5957,-56.117188 c -1.87988,-12.277487 -12.56852,-21.260018 -24.98633,-20.998047 -1.08047,0.02255 -2.1583,0.115853 -3.22657,0.279297 -13.51103,2.070517 -22.78538,14.701868 -20.71484,28.212891 l 7.2168,47.119137 -39.04883,12.41602 c -13.02523,4.142047 -20.22694,18.058416 -16.08594,31.08398 4.14205,13.025237 18.05842,20.226951 31.08399,16.08594 l 48.9707,-15.56836 63.03906,35.410161 -56.03711,33.24024 -52.89843,-20.61524 c -3.028,-1.17998 -6.25875,-1.75206 -9.50782,-1.68359 -10.00897,0.21121 -18.90495,6.43145 -22.53906,15.75976 -4.96182,12.73544 1.33922,27.08198 14.07422,32.04493 l 44.41406,17.31054 -8.77148,40.02344 c -2.92782,13.3526 5.52402,26.55024 18.87695,29.47656 13.35194,2.9266 26.54826,-5.52496 29.47461,-18.87695 l 11.00195,-50.19727 52.78125,-31.30859 0.7168,60.82422 -37.13867,35.49414 c -9.88243,9.44328 -10.23832,25.10989 -0.79492,34.99219 9.44382,9.88186 25.11041,10.23689 34.99218,0.79297 l 29.35352,-28.05274 37.84375,29.91602 c 10.72349,8.47757 26.28919,6.65604 34.76562,-4.06836 8.47713,-10.72401 6.65471,-26.28978 -4.07031,-34.76563 l -45.46875,-35.9414 -0.76562,-64.8711 59.78294,35.13074 14.10768,49.45129 c 3.23821,13.2787 18.45603,21.41862 31.73503,18.18164 13.28028,-3.23644 19.59352,-16.62603 16.35677,-29.90624 l -9.61719,-39.44727 44.83008,-17.81836 c 12.70192,-5.04886 18.90606,-19.43862 13.85742,-32.14063 -3.26609,-8.21745 -10.66831,-14.06805 -19.41797,-15.34765 -1.06874,-0.15625 -2.14657,-0.24237 -3.22656,-0.25781 -3.24943,-0.0464 -6.47619,0.54756 -9.49609,1.74804 l -53.86329,21.40625 -56.36132,-31.660151 61.52343,-36.49415 49.30664,14.41797 c 13.12009,3.837721 26.86692,-3.688055 30.70313,-16.80859 3.8352,-13.118855 -3.69004,-26.862965 -16.80859,-30.69922 l -38.97266,-11.39649 6.98633,-47.732419 c 1.97922,-13.524464 -7.37988,-26.092743 -20.9043,-28.072265 -1.06939,-0.156337 -2.14787,-0.242459 -3.22852,-0.257813 -7.69342,-0.110206 -15.00049,3.363959 -19.77148,9.400391 -2.69356,3.407551 -4.4429,7.463976 -5.07226,11.761719 l -8.39258,57.349607 -65.00586,38.5586 -0.89453,-75.84961 44.30078,-35.50391 c 10.66811,-8.547981 12.38562,-24.126223 3.83593,-34.792969 -4.81216,-6.004089 -12.14311,-9.428477 -19.83593,-9.265625 z"
       clip-path="url(#clipPath45)"
       transform="matrix(1.1707146,0,0,1.1733236,-251.59885,153.56843)"
       sodipodi:nodetypes="cccccccccccccccccccccccccccccccccccccccccccccccccsssccccccccccccccccccc" /><path
       style="fill:none;stroke:#000000;stroke-width:40.4189;stroke-linecap:round;stroke-linejoin:round;stroke-opacity:1"
       d="m 170.30031,179.64193 c 0,0 -11.78583,-82.250981 77.48346,-84.438594 54.0346,-1.32416 80.53103,57.301314 78.36438,96.577894 -4.86797,88.24568 -75.45922,104.85715 -75.45922,104.85715 l -1.40155,52.83689"
       id="path47"
       sodipodi:nodetypes="csscc" /><ellipse
       style="fill:#000000;fill-opacity:1;stroke:none;stroke-width:49.5663;stroke-linecap:round;stroke-linejoin:round;stroke-opacity:1"
       id="path48"
       cx="256"
       cy="409.44812"
       rx="29.562096"
       ry="31.376299" /></g></svg>
