<?xml version="1.0" encoding="UTF-8" standalone="no"?>
<!-- Created with Inkscape (http://www.inkscape.org/) -->

<svg
   width="512"
   height="512"
   viewBox="0 0 512 512"
   version="1.1"
   id="svg1"
   inkscape:version="1.3 (0e150ed, 2023-07-21)"
   sodipodi:docname="rebin.svg"
   xmlns:inkscape="http://www.inkscape.org/namespaces/inkscape"
   xmlns:sodipodi="http://sodipodi.sourceforge.net/DTD/sodipodi-0.dtd"
   xmlns="http://www.w3.org/2000/svg"
   xmlns:svg="http://www.w3.org/2000/svg">
  <sodipodi:namedview
     id="namedview1"
     pagecolor="#000000"
     bordercolor="#000000"
     borderopacity="0.25"
     inkscape:showpageshadow="2"
     inkscape:pageopacity="0.0"
     inkscape:pagecheckerboard="0"
     inkscape:deskcolor="#d1d1d1"
     inkscape:document-units="px"
     inkscape:zoom="0.49394322"
     inkscape:cx="244.96743"
     inkscape:cy="159.93741"
     inkscape:window-width="1312"
     inkscape:window-height="707"
     inkscape:window-x="0"
     inkscape:window-y="25"
     inkscape:window-maximized="0"
     inkscape:current-layer="layer1" />
  <defs
     id="defs1">
    <inkscape:path-effect
       effect="bspline"
       id="path-effect1"
       is_visible="true"
       lpeversion="1.3"
       weight="33.333333"
       steps="2"
       helper_size="0"
       apply_no_weight="true"
       apply_with_weight="true"
       only_selected="false"
       uniform="false" />
    <inkscape:path-effect
       effect="bspline"
       id="path-effect1-9"
       is_visible="true"
       lpeversion="1.3"
       weight="33.333333"
       steps="2"
       helper_size="0"
       apply_no_weight="true"
       apply_with_weight="true"
       only_selected="false"
       uniform="false" />
    <inkscape:path-effect
       effect="bspline"
       id="path-effect1-9-0"
       is_visible="true"
       lpeversion="1.3"
       weight="33.333333"
       steps="2"
       helper_size="0"
       apply_no_weight="true"
       apply_with_weight="true"
       only_selected="false"
       uniform="false" />
  </defs>
  <g
     inkscape:label="Layer 1"
     inkscape:groupmode="layer"
     id="layer1">
    <rect
       style="fill:none;stroke:#ffffff;stroke-width:20;stroke-linecap:round;stroke-linejoin:round;stroke-miterlimit:2.4;stroke-dasharray:none;stroke-opacity:1;paint-order:fill markers stroke"
       id="rect1"
       width="208.45737"
       height="205.88074"
       x="233.52809"
       y="37.029579" />
    <rect
       style="fill:none;stroke:#ffffff;stroke-width:20;stroke-linecap:round;stroke-linejoin:round;stroke-miterlimit:2.4;stroke-dasharray:none;stroke-opacity:1;paint-order:fill markers stroke"
       id="rect1-8"
       width="100"
       height="100"
       x="162.91643"
       y="374.77307" />
    <rect
       style="fill:none;stroke:#ffffff;stroke-width:20;stroke-linecap:round;stroke-linejoin:round;stroke-miterlimit:2.4;stroke-dasharray:none;stroke-opacity:1;paint-order:fill markers stroke"
       id="rect1-8-8"
       width="100"
       height="100"
       x="57.916435"
       y="374.77307" />
    <rect
       style="fill:none;stroke:#ffffff;stroke-width:20;stroke-linecap:round;stroke-linejoin:round;stroke-miterlimit:2.4;stroke-dasharray:none;stroke-opacity:1;paint-order:fill markers stroke"
       id="rect1-8-6"
       width="100"
       height="100"
       x="162.91643"
       y="269.77307" />
    <rect
       style="fill:none;stroke:#ffffff;stroke-width:20;stroke-linecap:round;stroke-linejoin:round;stroke-miterlimit:2.4;stroke-dasharray:none;stroke-opacity:1;paint-order:fill markers stroke"
       id="rect1-8-8-2"
       width="100"
       height="100"
       x="57.916435"
       y="269.77307" />
    <g
       id="path1-5"
       transform="matrix(0,-1,-1,0,531.26212,600.53517)">
      <g
         id="g2">
        <g
           id="path2">
          <path
             style="color:#000000;fill:#ffffff;fill-rule:evenodd;-inkscape-stroke:none"
             d="m 515.10394,325.40727 -10.61432,74.17784 -58.96133,-46.35258 z"
             id="path3" />
          <path
             style="color:#000000;fill:#ffffff;fill-rule:evenodd;-inkscape-stroke:none"
             d="m 521.2793,317.55273 -8.03125,3.21289 -77.62305,31.04297 72.58594,57.0625 z m -12.34961,15.70899 -8.16211,57.03711 -45.33789,-35.64063 z"
             id="path4" />
        </g>
      </g>
      <path
         style="color:#000000;fill:#ffffff;stroke-linecap:round;stroke-linejoin:round;stroke-miterlimit:2.4;-inkscape-stroke:none;paint-order:fill markers stroke"
         d="m 487.16992,349.49805 a 10,10 0 0 0 -6.67383,3.75 c -18.72398,23.81724 -37.14835,46.86552 -56.74218,60.20507 -19.59384,13.33956 -42.4405,18.66667 -66.77539,24.16407 a 10,10 0 0 0 -7.55079,11.95898 10,10 0 0 0 11.95704,7.55078 c 24.33489,-5.49739 50.15712,-11.16494 73.62304,-27.14062 23.46592,-15.97569 42.48891,-40.56166 61.21289,-64.37891 a 10,10 0 0 0 -1.68164,-14.04101 10,10 0 0 0 -7.36914,-2.06836 z"
         id="path5" />
    </g>
    <g
       id="path1-5-6"
       transform="translate(-53.751342,-31.920236)">
      <g
         id="g6">
        <g
           id="path6">
          <path
             style="color:#000000;fill:#ffffff;fill-rule:evenodd;-inkscape-stroke:none"
             d="m 478.67571,306.27275 8.51801,74.4477 -68.77834,-29.90885 z"
             id="path7" />
          <path
             style="color:#000000;fill:#ffffff;fill-rule:evenodd;-inkscape-stroke:none"
             d="m 482.66016,297.11133 -6.95704,5.14062 -67.22851,49.68946 84.67187,36.82031 z m -7.96875,18.32226 6.55078,57.2461 -52.88672,-22.99805 z"
             id="path8" />
        </g>
      </g>
      <path
         style="color:#000000;fill:#ffffff;stroke-linecap:round;stroke-linejoin:round;stroke-miterlimit:2.4;-inkscape-stroke:none;paint-order:fill markers stroke"
         d="m 457.75391,336.6543 a 10,10 0 0 0 -5.50586,5.3164 c -12.30966,28.30727 -24.44391,55.96094 -40.5625,78.01758 -16.11861,22.05663 -37.17419,39.8927 -58.94336,58.21875 a 10,10 0 0 0 -1.21094,14.0918 10,10 0 0 0 14.08984,1.20898 c 21.76917,-18.32605 44.25197,-37.1411 62.21289,-61.71875 17.96091,-24.57765 30.44425,-53.53648 42.75391,-81.84375 a 10,10 0 0 0 -5.18164,-13.1582 10,10 0 0 0 -7.65234,-0.13281 z"
         id="path9" />
    </g>
  </g>
</svg>
