<?xml version="1.0" encoding="UTF-8" standalone="no"?>
<!-- Created with Inkscape (http://www.inkscape.org/) -->

<svg
   width="512"
   height="512"
   viewBox="0 0 512 512"
   version="1.1"
   id="svg1"
   xml:space="preserve"
   inkscape:version="1.3 (0e150ed, 2023-07-21)"
   sodipodi:docname="Spyde.svg"
   inkscape:export-filename="Spyde.png"
   inkscape:export-xdpi="96"
   inkscape:export-ydpi="96"
   xmlns:inkscape="http://www.inkscape.org/namespaces/inkscape"
   xmlns:sodipodi="http://sodipodi.sourceforge.net/DTD/sodipodi-0.dtd"
   xmlns="http://www.w3.org/2000/svg"
   xmlns:svg="http://www.w3.org/2000/svg"><sodipodi:namedview
     id="namedview1"
     pagecolor="#ffffff"
     bordercolor="#000000"
     borderopacity="0.25"
     inkscape:showpageshadow="2"
     inkscape:pageopacity="0.0"
     inkscape:pagecheckerboard="0"
     inkscape:deskcolor="#d1d1d1"
     inkscape:document-units="px"
     inkscape:zoom="0.6701113"
     inkscape:cx="127.59075"
     inkscape:cy="219.36654"
     inkscape:window-width="1288"
     inkscape:window-height="791"
     inkscape:window-x="0"
     inkscape:window-y="25"
     inkscape:window-maximized="0"
     inkscape:current-layer="layer1" /><defs
     id="defs1"><clipPath
       clipPathUnits="userSpaceOnUse"
       id="clipPath4"><path
         d="M 0,864 H 864 V 0 H 0 Z"
         transform="translate(-502.93981,-487.27211)"
         id="path4" /></clipPath><clipPath
       clipPathUnits="userSpaceOnUse"
       id="clipPath2"><path
         d="M 132.355,463.847 H 863.999 V 778.532 H 132.355 Z"
         transform="translate(-199.5919,-236.82391)"
         id="path2" /></clipPath><clipPath
       clipPathUnits="userSpaceOnUse"
       id="clipPath6"><path
         d="M 132.355,85.468 H 863.999 V 523.02 H 132.355 Z"
         transform="translate(-199.5919,-236.82391)"
         id="path6" /></clipPath></defs><g
     inkscape:label="Layer 1"
     inkscape:groupmode="layer"
     id="layer1"><rect
       style="fill:#ffffff;fill-opacity:1;stroke:none;stroke-width:9.98341;stroke-linecap:square;stroke-linejoin:round;stroke-miterlimit:2.4;paint-order:fill markers stroke"
       id="rect8"
       width="438.78168"
       height="438.78168"
       x="-4.0736094"
       y="11.549088"
       ry="56.311874"
       transform="matrix(1.1395189,0,0,1.1395189,10.641955,-7.1604046)" /><path
       d="m 494.46576,256.16097 c -4.0521,-2.36919 -7.93264,-5.02958 -11.63258,-7.91796 -7.50259,-5.85693 -14.2941,-12.64843 -20.17811,-20.12845 -5.71808,-7.27009 -10.71718,-15.27834 -14.06496,-23.92657 -3.31844,-8.56924 -4.65822,-17.82473 -4.91331,-26.97414 -0.49889,-17.87325 3.04528,-36.29507 10.93615,-52.38947 0.93797,-1.03166 1.26304,-2.46512 0.91427,-3.78572 -0.87815,-4.2643 -5.28917,-3.08366 -8.34349,-2.7236 -5.18985,0.61289 -10.42936,0.79913 -15.65194,0.62643 -10.09527,-0.33748 -20.16908,-1.99895 -29.84784,-4.88848 -8.83561,-2.63329 -17.52223,-6.29486 -25.17381,-11.48696 -7.22832,-4.905406 -13.37194,-11.335719 -18.67128,-18.241224 -7.0985,-9.247593 -12.80079,-19.619389 -16.86305,-30.544257 -2.07007,-5.566842 -3.70897,-11.301861 -4.79141,-17.14411 -0.3736,-2.00912 -0.47519,-4.126595 -2.46061,-5.224838 -1.61632,-0.888302 -3.52273,-0.56436 -4.8535,0.670459 v -10e-4 c -13.61685,13.628148 -31.5172,23.384792 -50.07785,28.340997 -8.65389,2.309358 -17.62044,3.543047 -26.57569,2.78342 -9.70586,-0.822836 -19.26271,-3.448236 -28.28343,-7.065779 -8.88414,-3.563365 -17.37211,-8.17531 -25.13318,-13.783914 -3.84104,-2.77552 -7.50485,-5.801614 -10.9181,-9.091828 -1.02262,-0.9865 -1.94817,-2.101675 -3.44146,-2.328547 -1.5757,-0.248318 -3.24056,0.502279 -4.09161,1.851099 -0.80704,1.26868 -0.81493,2.999005 -1.08921,4.427963 -0.48422,2.517043 -1.07003,5.014897 -1.74952,7.486791 -1.31721,4.797055 -2.97755,9.498168 -4.92685,14.072865 -3.86812,9.082799 -8.86045,17.717499 -14.87201,25.549677 -5.10292,6.649278 -10.98694,12.85611 -17.86987,17.685886 -7.17639,5.03634 -15.34605,8.65051 -23.6681,11.32556 -9.2126,2.96289 -18.808969,4.78127 -28.462901,5.41898 -4.982162,0.3296 -9.988029,0.33524 -14.967941,-0.026 -2.500108,-0.18172 -4.994582,-0.45713 -7.472118,-0.83413 -1.987673,-0.30249 -3.918909,0.17721 -4.890742,2.11635 -1.505707,1.50007 -1.406379,3.4742 -0.509049,5.2429 1.102762,2.17391 2.116354,4.39297 3.047542,6.6459 1.811591,4.38168 3.312786,8.88979 4.530674,13.47125 2.398527,9.02411 3.73381,18.34845 3.952776,27.68296 0.220101,9.40111 -0.607247,18.99746 -3.342135,28.02834 -2.592671,8.55907 -7.016121,16.54024 -12.147272,23.82726 -9.743101,13.83583 -22.627425,25.8375 -37.487007,34.00604 h -0.346518 c -2.172782,0 -3.913267,1.7258 -4.057743,3.82523 -0.01016,0.14447 -0.01242,0.29233 -0.0068,0.44019 -0.03725,0.24494 -0.05305,0.47971 -0.04966,0.70545 0.0553,3.43695 4.631133,4.73498 7.125601,6.18989 4.055487,2.36355 7.939408,5.02055 11.641605,7.90555 7.508238,5.85015 14.306511,12.63489 20.198423,20.10925 5.724861,7.26332 10.731864,15.26593 14.088669,23.91304 3.33875,8.59745 4.686444,17.8902 4.94492,27.07458 0.494381,17.62607 -2.94822,35.77023 -10.600928,51.70209 -1.470722,1.22014 -1.887221,3.27554 -1.046325,4.95168 1.507972,4.22254 6.90437,2.25067 10.100906,1.9335 5.210164,-0.51583 10.460963,-0.61289 15.688065,-0.35441 10.062519,0.49889 20.078768,2.29807 29.687558,5.32303 8.66066,2.72698 17.18136,6.46418 24.60268,11.74884 7.18881,5.12099 13.29292,11.72625 18.54598,18.78188 10.31761,13.86179 17.83602,30.25982 20.81245,47.32605 -0.21221,1.71114 0.68965,3.37486 2.24727,4.14353 1.32851,0.73817 2.9866,0.72462 4.26318,-0.12302 0.0824,0 0.59596,-0.47858 0.63998,-0.52373 v -9.2e-4 c 9.24307,-9.26791 20.43206,-16.58878 32.32425,-21.99309 12.04568,-5.47656 25.41424,-9.44173 38.74213,-9.44173 h 0.0148 0.0429 c 12.9577,-0.0147 25.95376,3.73041 37.72518,8.92816 11.88992,5.24741 23.07891,12.42268 32.41905,21.49306 0.82849,1.49556 2.52269,2.31049 4.22253,2.0317 1.5204,-0.16029 2.85342,-1.17727 3.39971,-2.60621 0,-0.002 0,-0.002 0,-0.004 0.0575,-0.1535 0.21107,-0.63208 0.21107,-0.79687 l -9.1e-4,-0.002 c 3.05769,-19.35527 12.04004,-38.09878 24.50109,-53.15701 5.46977,-6.60864 11.75786,-12.55925 19.11598,-17.02221 8.10081,-4.91557 17.08881,-8.35703 26.23594,-10.742 8.26223,-2.1536 16.76487,-3.43808 25.29684,-3.76879 4.36476,-0.17045 8.74194,-0.0881 13.09427,0.27991 2.27098,0.19302 4.53519,0.4639 6.78698,0.82171 1.6502,0.26073 3.32635,-0.54743 4.16273,-1.99333 1.55762,-1.75176 1.0181,-3.69316 0.0858,-5.56571 -1.08471,-2.18068 -2.08249,-4.40087 -2.99788,-6.65717 -1.77886,-4.38396 -3.24958,-8.89318 -4.44151,-13.47127 -2.34209,-9.00943 -3.62883,-18.3112 -3.80266,-27.61749 -0.17495,-9.42142 0.69982,-19.04599 3.52838,-28.0701 2.6841,-8.56471 7.17188,-16.53912 12.36625,-23.82048 9.82097,-13.76021 22.75722,-25.68624 37.65856,-33.74529 2.17505,-0.07 3.95278,-1.89739 3.95278,-4.07468 0.017,-0.17045 0.0226,-0.34088 0.0215,-0.51131 0.004,-3.63787 -4.551,-4.82753 -7.10415,-6.3197 z M 329.11297,56.341632 c 0,0 2.12764,-5.49799 3.92681,-0.571133 3.52499,9.660704 8.21143,18.910555 13.94984,27.436896 6.32308,9.390942 13.94758,18.173495 23.14438,24.855505 9.07715,6.5748 19.63407,11.05806 30.35915,14.14624 10.11331,2.9121 20.5946,4.88848 31.12103,4.88848 4.12434,0 1.28335,3.5295 1.28335,3.5295 l -31.14586,22.64548 c -9.42819,1.34093 -19.29546,-0.68174 -28.32519,-3.32632 -8.70695,-2.54865 -18.11142,-5.86145 -25.51131,-11.24543 -7.12222,-5.14132 -12.95318,-12.65972 -17.94888,-19.79435 -5.4551,-7.78928 -10.56707,-16.56845 -12.46671,-25.994384 -0.0316,-0.162537 -0.0621,-0.32394 -0.0936,-0.485344 z m 65.59211,297.909508 c 0.55646,3.7259 -2.06556,1.75177 -2.06556,1.75177 l -20.75713,-15.09097 c -2.73151,-5.46187 -3.19202,-12.43058 -3.41212,-18.4207 -0.26299,-7.16284 0.27541,-14.49838 2.23373,-21.41518 1.92785,-6.8073 5.44155,-13.13489 9.51397,-18.88459 3.9381,-5.56006 8.63357,-11.32444 14.37988,-15.11016 h 25.25846 c 0,0 3.24846,0.76529 0.90072,3.11302 -4.70562,4.70787 -8.92816,9.91015 -12.73082,15.3596 -4.71014,6.74861 -9.32434,14.12253 -11.86734,21.99986 -2.44819,7.64142 -3.03061,16.01877 -3.18525,23.9943 -0.15012,7.58499 0.29573,15.23884 1.73146,22.70305 z m -272.92871,-1.7292 c 2.74392,-10.46436 1.62987,-21.75831 0.28217,-32.43373 -0.60498,-4.74739 -1.45491,-9.52187 -3.22135,-13.98821 -1.91656,-4.84108 -4.49907,-9.42932 -7.25879,-13.83471 -4.73949,-7.56467 -10.24651,-14.83249 -16.650869,-21.11607 -2.790188,-2.78907 1.82289,-4.06903 1.82289,-4.06903 h 22.960389 c 9.2e-4,0 9.2e-4,0 0.002,9.1e-4 5.30836,2.64008 9.72729,8.03987 13.33468,12.59877 4.51148,5.70229 8.46199,12.0344 10.98469,18.87669 2.43012,6.59059 3.31617,13.72296 3.41211,20.71763 0.0937,6.86712 -0.2867,14.41147 -2.75859,20.89823 l -19.78756,14.38552 c 0,0 -4.47199,3.11301 -3.12204,-2.03621 z m -0.73705,-179.05205 c 0,-3.75072 4.22931,-1.76757 4.22931,-1.76757 l 18.22429,13.25116 c 2.40642,5.73954 3.23378,11.9396 3.50919,18.13287 0.32393,7.32087 -0.18963,14.83475 -2.17843,21.91182 -1.9177,6.82536 -5.43366,13.16989 -9.50607,18.93313 -3.89859,5.51605 -8.5207,11.16303 -14.16204,14.9826 H 97.293331 c 0,0 -5.413339,-0.0395 -1.67389,-3.77893 4.563409,-4.56343 8.552299,-9.70248 12.209349,-15.0052 4.56905,-6.62445 9.03992,-13.83922 11.51971,-21.54499 2.49334,-7.79832 3.04979,-16.3698 3.17057,-24.5056 0.10158,-6.88632 -0.29573,-13.81665 -1.47975,-20.60929 z m 239.86514,156.84564 c 0.57565,2.96514 -2.13892,1.06212 -2.13892,1.06212 l -11.88428,-8.64372 c -4.73723,-9.37288 -4.51148,-21.68156 -1.3522,-31.48561 3.0735,-9.5501 9.64941,-18.97489 18.36539,-24.16926 h 14.11801 c 0,0 3.80491,0.60725 0.95603,3.45613 -7.25316,7.25089 -12.43171,16.77051 -15.56391,26.47184 -3.38954,10.55805 -3.9302,22.27979 -2.50012,33.3085 z m -205.62659,-1.84658 c 1.02487,-10.30634 0.25961,-21.09237 -2.94144,-30.88401 -3.148,-9.55685 -8.75208,-18.52453 -15.47248,-26.13887 -3.69994,-3.69994 1.66147,-4.36588 1.66147,-4.36588 h 12.0931 c 8.66179,4.45843 15.31559,13.5435 18.77849,22.4615 3.9065,10.06367 4.437,22.5518 0.1061,32.58837 l -11.24881,8.17869 c -9.2e-4,0 -3.43581,2.76649 -2.97643,-1.8398 z m -0.36118,-129.77219 c 0,-5.16388 3.57352,-2.83985 3.57352,-2.83985 l 10.03092,7.29265 c 4.779,9.19003 4.61759,21.39035 1.66147,31.09168 -2.96966,9.73971 -9.56363,19.32593 -18.3541,24.67266 h -12.62245 c 0,0 -5.76551,-0.25169 -2.23036,-3.78684 7.24751,-7.24751 12.31997,-16.86306 15.31447,-26.59037 2.91886,-9.48348 3.60287,-19.86995 2.62653,-29.83993 z m 180.16834,17.94776 c 0,6.84117 0.43343,13.7478 2.55766,20.24583 2.33081,7.1256 5.88063,14.05255 11.18336,19.35639 2.48995,2.49221 -1.63325,2.6683 -1.63325,2.6683 h -13.79859 c -6.07364,-3.28119 -9.45754,-9.23179 -11.66306,-15.556 -2.39627,-6.86939 -3.81281,-14.40245 -0.71786,-21.29215 l 10.53772,-7.66175 c 9.2e-4,0 3.53402,-1.95832 3.53402,2.23938 z m 0.34651,94.27736 c 0.63659,3.98889 -2.38272,1.75629 -2.38272,1.75629 l -11.58179,-8.42138 c -3.25974,-6.64589 -2.22132,-13.95885 -0.0271,-20.76165 2.09377,-6.50932 5.30047,-12.84481 11.39781,-16.41495 h 14.55934 c 0,0 3.75863,0.0508 1.0102,2.80035 -10.54111,10.53998 -15.35058,26.19531 -12.97575,41.04134 z m -24.21666,-14.11914 -34.80292,-25.30475 c -1.16821,-2.00347 -1.67727,-3.26199 1.38381,-4.41893 h 42.86536 c -3.12091,3.97535 -5.22709,8.57262 -6.80844,13.35387 -1.74274,5.25531 -2.95384,10.80298 -2.63781,16.36981 z m -106.76889,-4.02389 c 0,-3.92003 -1.24047,-7.75655 -2.46061,-11.47906 -0.96392,-2.93805 -2.11634,-5.80613 -3.57127,-8.50941 -3.14686,-5.36932 3.52161,-5.71019 3.52161,-5.71019 h 37.38429 c 1.93914,0.57903 2.43578,2.12312 0.98989,3.57014 l -32.22718,23.42995 c 9.2e-4,-9.2e-4 -3.63673,3.07237 -3.63673,-1.30143 z m -23.96383,17.12719 c 1.02149,-6.92356 -0.36457,-14.06723 -2.543,-20.7165 -2.02718,-6.16733 -5.20678,-11.9633 -9.26227,-17.04366 -3.96857,-3.96744 0.60161,-5.06569 0.60161,-5.06569 h 12.74887 c 6.15039,3.25974 9.58396,9.24646 11.8143,15.62259 2.38498,6.81521 3.81508,14.29071 0.80253,21.14881 l -10.27134,7.4676 c 0,0 -4.44829,2.3658 -3.8907,-1.41315 z m -12.30078,-54.95281 c 8.84917,-11.00725 13.15747,-25.10947 11.92718,-39.19927 0,-3.98776 4.46859,-0.93006 4.46859,-0.93006 l 9.40109,6.83665 c 3.33989,6.67749 2.31727,14.04803 0.11627,20.90726 -2.0712,6.454 -5.23613,12.76355 -11.24768,16.34723 h -12.48138 c 0,0 -5.48783,-0.65692 -2.18407,-3.96181 z m 36.09643,-21.60367 c 0,-3.75863 2.86243,-2.12199 2.86243,-2.12199 l 34.18099,24.85213 v 0 c 1.52377,1.52264 1.36688,2.052 -1.59262,2.83534 h -38.06718 c 0,0 -6.53076,0.47632 -3.92568,-4.19659 1.60956,-2.88499 2.90759,-5.94269 3.94826,-9.09859 1.31044,-3.96406 2.31613,-8.09291 2.5938,-12.2703 z m 106.95288,0.88039 c 0,3.59611 1.23707,7.09964 2.35675,10.52305 1.666,5.09504 3.89973,9.98127 7.28815,14.16204 h -44.71194 c -1.63326,-0.74834 -2.55881,-1.83418 -0.55646,-3.83313 l 31.2418,-22.71434 c -9.1e-4,0 4.3817,-3.5927 4.3817,1.86238 z m -39.30538,-28.07124 -12.37415,38.13716 c -1.48765,1.48765 -1.93914,1.47072 -3.61641,-0.20542 v 0 l -12.05472,-37.14953 c 0,0 -1.80482,-5.78807 2.82857,-3.77555 3.40083,1.47749 7.34119,1.11516 11.06822,1.1163 4.16272,-9.2e-4 8.31753,-0.36571 12.32335,-1.42896 3.13558,-1.29125 1.82514,3.306 1.82514,3.306 z m -15.89237,75.44018 v 0 c 1.47299,-1.47071 1.45267,-1.66147 3.66495,0.54969 v 0 l 13.61913,41.97819 c -4.9404,-1.82063 -10.15734,-2.41208 -15.40363,-2.41321 h -0.0756 c -5.32981,0.006 -10.62915,0.61402 -15.63275,2.50576 z M 302.56663,225.38757 270.60922,248.62 v 0 c -2.51026,0.97408 -2.9324,-0.57114 -2.9324,-2.91097 v 0 L 279.99,207.75586 c 0,0 0.11739,-3.54078 3.62206,-0.0351 2.73828,2.73827 5.50363,5.47428 8.63244,7.74301 3.20669,2.32629 6.6188,4.40087 10.2849,5.88401 3.77217,0.8962 0.0372,4.03967 0.0372,4.03967 z m -21.43775,-47.59581 -3.98663,12.2861 c -5.29143,4.87607 -12.40688,6.03979 -19.36431,6.03979 -6.95966,0 -14.07737,-1.16372 -19.36654,-6.04091 l -3.67738,-11.3346 c 0,0 -1.77434,-5.89416 3.10511,-3.59722 12.81661,4.98667 27.1344,4.96862 39.94762,-0.0305 3.88731,-1.44928 3.34213,2.67732 3.34213,2.67732 z m -49.28663,30.00474 c 2.20664,-4.1932 3.92569,0.59032 3.92569,0.59032 l 12.43283,38.32 c 0,2.7868 -1.20886,2.06104 -3.05319,2.06104 v 0 l -32.77235,-23.82613 c 0,0 -2.95497,-2.28905 0.63548,-3.58594 3.91552,-1.41429 7.43938,-3.77444 10.79055,-6.24971 2.92902,-2.16489 5.68196,-4.5589 8.04099,-7.30958 z m -17.80554,92.04701 31.54091,-22.93218 c 2.00913,0 2.31162,0.60838 2.31162,3.33085 v 0 l -12.19129,37.5773 c 0,0 -1.27658,3.92681 -3.72025,0.45601 -2.22358,-3.15703 -5.50025,-5.4506 -8.62454,-7.71028 -3.10511,-2.24728 -6.40097,-4.25753 -9.9316,-5.726 -3.90085,-0.84879 0.61515,-4.9957 0.61515,-4.9957 z m 20.37789,48.39382 3.95616,-12.19694 c 5.29708,-4.96184 12.45993,-6.15716 19.47265,-6.16168 h 0.0135 0.0575 c 6.88067,-0.002 13.92726,1.14227 19.19161,5.92126 l 4.14126,12.76807 c 0,0 1.38155,4.30605 -2.32403,2.71118 -6.64364,-2.76085 -13.82341,-4.25414 -21.02013,-4.2564 h -0.0418 c -7.07256,0.0113 -14.1406,1.45831 -20.6883,4.1424 -4.62096,1.84432 -2.75858,-2.92789 -2.75858,-2.92789 z m 46.69735,-26.53956 -13.23536,-40.79867 v 0 c 0,-2.32065 0.79688,-2.95161 3.52048,-2.95161 v 0 l 34.90788,25.37924 c -5.3061,1.45944 -10.10428,4.27672 -14.50291,7.52968 -4.11869,3.04868 -7.86378,6.54545 -10.69009,10.84136 z m 45.97949,-114.14169 -10.70025,7.77913 c -7.40215,0.91651 -14.08641,-2.57462 -19.86433,-6.85471 -5.4314,-4.02389 -10.23973,-9.04781 -11.62016,-15.88333 l 4.70902,-14.51646 c 0,0 1.17387,-3.4629 3.04077,1.22805 5.4201,13.61573 19.71985,21.53934 34.24758,24.67041 3.48323,0 0.18737,3.57691 0.18737,3.57691 z m -36.30976,-59.51848 -4.01259,12.36512 c -7.57144,6.96646 -18.85187,10.41017 -28.9934,10.40567 -10.14379,0.005 -21.42307,-3.44034 -28.99452,-10.4068 l -3.75525,-11.57387 c 0,0 -0.91201,-5.23275 3.53062,-3.17397 9.07491,4.20673 19.30337,6.37049 29.22028,6.37726 10.41243,-0.0148 21.01674,-2.73036 30.59392,-6.96984 4.1898,-1.46732 2.41094,2.97643 2.41094,2.97643 z m -100.87924,55.59393 c 13.32792,-3.4505 24.94582,-11.85607 32.41116,-23.41527 1.66487,-4.23609 4.42346,0.33973 4.42346,0.33973 l 3.90761,12.04118 c -1.37364,6.83778 -6.18762,11.86283 -11.61903,15.88446 -5.77903,4.2801 -12.46105,7.76897 -19.86545,6.85245 l -10.57947,-7.69222 c 0,0 -4.60857,-3.22363 1.32172,-4.01033 z m 14.22412,-15.60906 c -8.33446,6.2136 -19.81691,10.23409 -30.28691,8.9022 l -10.1404,-7.37392 c 0,0 -4.22028,-4.06113 0.0283,-4.06113 10.66753,0 20.84858,-6.33549 29.35685,-12.65745 8.10533,-6.02172 14.86748,-14.15864 20.01557,-22.91976 1.35333,-3.32634 3.91665,0.67723 3.91665,0.67723 l 4.00131,12.33464 c -2.0046,9.89886 -8.90558,19.14307 -16.89127,25.09819 z m -40.72418,148.63759 10.28376,-7.47663 c 10.32553,-1.44139 21.74251,2.48995 30.04762,8.50038 8.1787,5.9156 15.20272,15.21287 17.3439,25.20654 l -3.80943,11.73981 c 0,0 -2.26985,6.95403 -3.9539,1.67388 -3.16154,-9.9124 -12.2116,-17.33599 -20.59122,-23.4085 -8.33671,-6.01946 -18.41955,-10.05349 -28.55884,-12.22853 -4.65032,-0.75286 -0.76189,-4.00695 -0.76189,-4.00695 z m 59.18212,9.43383 c -7.70239,-12.07052 -19.85416,-20.66346 -33.71597,-23.92658 -4.25074,-1.13436 -0.37246,-3.75299 -0.37246,-3.75299 l 10.55691,-7.67415 c 7.23508,-0.96055 13.80647,2.30483 19.51553,6.44046 5.59393,4.04306 10.65285,9.11439 12.11454,16.09779 l -4.09385,12.62019 c 0,0 -2.20214,3.84555 -4.0047,0.19528 z m 1.93575,32.63351 4.20221,-12.95092 c 7.53647,-7.09738 18.96023,-10.58287 29.14804,-10.59076 h 0.0271 0.005 c 10.08511,-0.006 21.21314,3.39632 28.80943,10.22844 l 4.25301,13.10669 c 0,0 2.00234,5.2429 -2.7665,2.25969 -9.48914,-4.14916 -19.96478,-6.80842 -30.26094,-6.8152 h -0.0496 c -10.68444,0.0237 -21.58335,2.8929 -31.35354,7.34006 -4.32524,1.77772 -2.01363,-2.578 -2.01363,-2.578 z m 68.12269,-31.90324 c -0.76075,1.24272 -3.51935,-0.43004 -3.51935,-0.43004 l -4.17512,-12.87642 c 1.33302,-6.9055 6.16393,-11.98247 11.63595,-16.04135 5.73051,-4.25189 12.35497,-7.73737 19.70406,-6.89196 l 11.66981,8.48458 c 0,0 2.70329,2.9121 -0.94022,2.9121 -14.29071,3.34552 -26.72129,12.33689 -34.37513,24.84309 z m 18.85976,-8.90445 c 8.29496,-6.19555 19.63746,-10.17201 30.06456,-8.95526 l 11.14383,8.10195 c 0,0 3.66722,2.43803 -0.1772,3.21007 -10.6472,2.1378 -21.30682,6.37162 -29.97538,12.82451 -8.30286,6.18198 -15.21401,14.59885 -20.39821,23.62859 -2.11635,4.58486 -3.25862,-0.20543 -3.25862,-0.20543 l -4.30606,-13.26921 c 1.90303,-9.98127 8.88754,-19.34398 16.90708,-25.33522 z m 66.51089,-79.00467 h -13.27938 c -8.71371,-4.62888 -15.37427,-13.8144 -18.75592,-22.91073 -3.71349,-9.99029 -4.16271,-22.3825 0.22912,-32.25427 l 10.87409,-7.90555 c 0,0 3.78685,-0.67835 3.18411,2.57123 -1.8432,9.93948 -0.1219,20.56298 2.98772,30.10405 3.32972,10.14266 9.08957,19.93543 16.67569,27.52493 2.80712,2.80714 -1.91543,2.87034 -1.91543,2.87034 z m -30.79258,-83.0895 c -6.86599,-2.1062 -13.66879,-5.0307 -19.50426,-9.26904 -5.59732,-4.04533 -10.31424,-9.32886 -14.33699,-14.90924 -3.84103,-5.32869 -7.81751,-11.50504 -9.35257,-17.97712 l 7.95748,-24.53156 c 0,0 1.29576,-3.5882 2.50236,-0.37474 3.54305,7.35135 8.06921,14.22977 13.11233,20.63636 4.80044,6.10186 10.1754,12.36964 16.68247,16.71294 6.42692,4.2914 13.80648,7.31862 21.08671,9.82889 6.36147,2.19422 12.90126,4.18415 19.59796,4.98441 4.9878,0.59596 1.37138,3.55548 1.37138,3.55548 l -19.72435,14.33923 c -6.39759,0.67272 -13.32678,-1.13549 -19.39252,-2.99561 z m -44.57537,-25.59145 c 4.39072,9.23631 12.06037,16.96464 20.27744,22.93105 8.46539,6.1267 18.68594,10.1517 28.96292,12.33689 3.94601,0 0.54743,3.62772 0.54743,3.62772 l -10.72169,7.79492 c -10.28376,1.30706 -21.54612,-2.55993 -29.81398,-8.55907 -8.21708,-5.95398 -15.31898,-15.36412 -17.36309,-25.44583 l 4.00583,-12.34593 c 0,9.2e-4 2.04862,-4.66726 4.10514,-0.33975 z m 0.38264,-39.94422 -6.76892,20.86211 c -4.79592,4.11982 -11.23414,6.69781 -17.14412,8.7295 -6.82761,2.34774 -14.08866,3.99003 -21.3373,3.98325 -6.90662,0.0102 -13.82567,-1.49668 -20.35869,-3.65253 -6.23956,-2.05878 -13.08185,-4.72594 -18.12609,-9.06361 l -7.04321,-21.70864 c 0,0 -0.78897,-5.30837 3.00578,-3.50016 5.81515,2.77101 11.79172,5.23838 17.94436,7.12673 7.86605,2.41433 16.29758,4.54422 24.57673,4.55325 7.90103,-0.0112 15.91946,-1.97413 23.45252,-4.21238 6.12104,-1.81949 12.09084,-4.20561 17.90599,-6.87954 5.80613,-2.66716 3.89295,3.76202 3.89295,3.76202 z m -98.82723,0.80365 7.32539,22.58001 c -1.46168,6.15039 -5.16163,12.01634 -8.75321,17.13058 -4.14917,5.90883 -9.06249,11.49938 -14.93521,15.75126 -5.62666,4.09048 -12.16533,6.95178 -18.77397,9.03991 -6.26666,1.9809 -13.47465,3.91778 -20.11039,3.23603 L 130.8919,165.6998 c 0,0 -4.34217,-3.8715 0.71222,-4.95621 6.33212,-1.35897 12.68681,-2.75746 18.78865,-4.8738 7.60531,-2.63783 15.47587,-5.81404 22.03712,-10.56029 6.31969,-4.59502 11.60548,-10.80862 16.34948,-16.96464 4.23608,-5.49799 8.10759,-11.34137 11.26688,-17.53691 2.16149,-4.09047 4.1548,0.28557 4.1548,0.28557 z m -74.79003,250.27984 19.34624,-14.0661 c 6.25198,-0.79462 13.15409,1.01134 19.0968,2.78455 6.90437,2.05427 13.73424,4.93476 19.64195,9.10424 5.6357,3.97874 10.38761,9.19907 14.45213,14.74107 3.95954,5.3998 7.96536,11.61903 9.64829,18.17576 l -7.26444,22.38813 c 0,0 -1.9888,4.64017 -4.29703,0.4165 -3.49001,-6.38628 -7.44277,-12.54232 -11.94298,-18.25251 -4.80834,-6.09508 -10.19007,-12.35382 -16.6994,-16.69149 -6.42353,-4.28236 -13.7997,-7.29942 -21.07205,-9.80066 -6.64363,-2.28566 -13.51189,-4.11079 -20.48398,-5.09617 -4.81737,9.2e-4 -0.42553,-3.70332 -0.42553,-3.70332 z m 82.63914,55.7903 7.17302,-22.10708 c 4.75755,-4.25639 11.38538,-6.86825 17.33712,-8.92139 6.82536,-2.35225 14.08415,-4.00244 21.33278,-4.0047 h 0.0237 0.0203 c 6.89986,-0.0102 13.81326,1.49103 20.3429,3.64125 6.18311,2.03508 12.85159,4.66047 17.9105,8.86495 l 7.6561,23.597 c 0,0 1.63891,4.4449 -2.54751,2.21794 -5.95624,-3.17058 -12.31433,-5.56459 -18.76609,-7.53872 -7.86828,-2.40981 -16.30208,-4.53294 -24.57897,-4.53745 h -0.0316 c -7.90102,0.0192 -15.91943,1.98881 -23.44912,4.23495 -7.09739,2.11635 -14.09544,4.79479 -20.63975,8.29721 -4.1424,2.18069 -1.78337,-3.74396 -1.78337,-3.74396 z m 99.54623,-1.50458 -7.50147,-23.12857 c 1.31383,-6.05107 4.98442,-11.87074 8.45411,-16.90143 4.11079,-5.95739 8.9925,-11.58969 14.81669,-15.92962 5.58603,-4.16271 12.09197,-7.07932 18.69158,-9.22163 6.36259,-2.06556 13.61686,-4.01711 20.37224,-3.43807 l 19.75822,14.36407 c 0,0 3.25749,2.59493 -0.65465,3.49452 -6.9879,1.60729 -14.08415,2.93918 -20.83163,5.3219 -7.5263,2.657 -15.39008,5.83547 -21.82152,10.65172 -6.29374,4.7124 -11.58066,10.94858 -16.32353,17.17233 -4.23382,5.55442 -8.09856,11.46101 -11.22172,17.72314 -2.50011,5.00699 -3.73832,-0.10836 -3.73832,-0.10836 z M 420.06061,258.91504 h -24.45933 c -5.3569,-2.86582 -9.77132,-8.22159 -13.44304,-12.93851 -4.45506,-5.72599 -8.35816,-12.08406 -10.78942,-18.9478 -2.33532,-6.60187 -3.16041,-13.72861 -3.20669,-20.70295 -0.0451,-6.77909 0.35328,-14.26588 2.885,-20.63637 l 19.99977,-14.54016 c 0,0 3.39857,-1.87254 2.77439,2.70328 -1.45266,10.65737 -1.59375,21.64432 -0.2596,32.25201 0.59935,4.72934 1.44476,9.4835 3.20104,13.93404 1.91092,4.84446 4.48892,9.43496 7.24637,13.84373 4.93928,7.90216 10.85377,15.33026 17.47257,21.94681 3.46968,3.46855 -1.42106,3.08592 -1.42106,3.08592 z M 200.56207,53.355042 c 7.64594,3.985505 15.07404,8.433786 23.14662,11.447464 10.84813,4.048715 22.43895,6.797144 34.06925,6.808432 11.6292,-0.01016 23.22001,-2.759717 34.06926,-6.808432 9.47333,-3.536275 18.22204,-8.71258 26.90075,-13.911458 4.39523,-2.632172 2.4877,3.280056 2.4877,3.280056 l -11.60097,35.758935 c -6.91905,6.537545 -16.1023,10.653981 -24.97742,13.785041 -8.53763,3.01255 -18.10014,5.86144 -27.23825,5.73841 -8.88187,-0.11852 -18.03579,-2.76198 -26.35782,-5.68084 -8.79837,-3.08592 -17.86764,-7.148176 -24.79683,-13.535598 -0.11739,-0.110608 -0.23591,-0.218967 -0.3533,-0.329585 L 195.69954,58.430889 c 0,0 -2.40642,-8.864957 4.86253,-5.075847 z M 88.392257,126.88881 c 9.438344,0 18.771713,-2.31839 27.811633,-5.01377 8.20239,-2.45158 16.21404,-5.72712 23.58005,-10.11445 6.85246,-4.08031 12.91142,-9.27355 18.28863,-15.149656 9.60541,-10.498213 17.50983,-22.817054 22.65114,-36.143836 3.18073,-8.245291 7.25088,0.610637 7.25088,0.610637 l 10.16638,31.335492 c -1.73823,9.304023 -6.68202,17.961303 -11.98474,25.673833 -5.11422,7.44052 -11.13707,15.27607 -18.51663,20.61379 -7.25766,5.27902 -16.44882,8.5444 -24.97403,11.08628 -9.18552,2.73939 -19.25595,4.85461 -28.86359,3.4866 L 88.356132,134.77291 c -0.0018,-9.2e-4 -8.343484,-7.8841 0.03613,-7.8841 z m -47.86445,126.67836 c 5.335454,-4.31171 10.117835,-9.22276 14.479204,-14.26474 11.970065,-13.86406 21.007717,-30.09391 23.574424,-48.39609 2.159238,-15.40023 0.781072,-31.40885 -2.950469,-46.60817 -2.761978,-11.24995 5.558936,-4.64243 5.558936,-4.64243 l 26.976378,19.61375 c 0.58129,1.83304 1.62536,3.55095 2.27211,5.37947 0.82397,2.33194 1.46733,4.72934 1.98316,7.14817 1.04971,4.9122 1.59375,9.93047 1.82401,14.94538 0.42892,9.29951 0.15125,19.21755 -2.34209,28.24505 -2.27776,8.25206 -7.50486,16.03683 -12.481379,22.89041 -5.62102,7.74302 -12.230793,15.35961 -20.391427,20.51108 -0.283307,0.17947 -0.571132,0.35443 -0.860081,0.52711 H 42.659957 c 0,-9.1e-4 -9.592981,0.68063 -2.13215,-5.34899 z m 36.091911,128.41207 c 4.40878,-14.96117 4.696595,-31.17295 2.316132,-46.50547 -2.790192,-17.97145 -11.90347,-33.89655 -23.76969,-47.46037 -4.311705,-4.92121 -9.105373,-9.61555 -14.280549,-13.91822 -7.410038,-4.90654 1.366878,-7.01612 1.366878,-7.01612 h 33.836732 c 3.745086,2.23824 7.236213,4.49682 10.495954,7.43713 3.640121,3.28006 6.948396,6.92243 10.013996,10.74201 5.886269,7.33217 11.532119,15.57746 14.868609,24.42322 1.43912,3.81394 2.06894,7.94279 2.55655,11.97006 0.605,5.01152 0.85444,10.07043 0.80365,15.11807 -0.0959,9.62796 -1.05874,19.85979 -5.00926,28.75411 l -27.47527,19.97493 c 0,0 -8.454102,5.74856 -5.723732,-3.51935 z m 104.832022,84.95979 c -3.32409,-8.66742 -7.81187,-16.88112 -13.03445,-24.54399 -6.26666,-9.19792 -13.7952,-17.78973 -22.84075,-24.34646 -9.22841,-6.66848 -19.97945,-11.18673 -30.89417,-14.26588 -8.31188,-2.34434 -16.842739,-4.45505 -25.479693,-4.45505 -9.597498,0 -2.395142,-6.97887 -2.395142,-6.97887 l 26.733705,-19.43653 c 9.34015,-1.44815 19.19048,0.52937 28.16265,3.09946 8.89092,2.54525 18.50873,5.89304 26.05987,11.37636 7.12673,5.13341 12.96559,12.64616 17.9692,19.77627 5.48332,7.813 10.62689,16.62716 12.51523,26.0926 l -10.66865,32.88183 c -9.1e-4,0 -3.06221,8.79385 -6.1278,0.80026 z m 133.46082,5.46187 c -7.40665,-4.1582 -14.87312,-8.26223 -22.82495,-11.2251 -10.84473,-4.0397 -22.4299,-6.78022 -34.05345,-6.78925 h -0.0676 c -11.62919,0.0226 -23.21662,2.78229 -34.06248,6.84229 -8.36155,3.12993 -16.45672,7.06916 -23.92431,11.97232 -7.29943,4.79254 -4.72256,-4.27896 -4.72256,-4.27896 l 10.55803,-32.54097 c 6.78585,-6.57366 15.90365,-10.71832 24.68959,-13.8776 8.60422,-3.09382 18.20172,-5.96189 27.42448,-5.96189 h 0.0249 c 8.78595,-0.0169 17.91841,2.63104 26.1558,5.46751 9.0196,3.10624 18.35185,7.22154 25.43116,13.77488 l 10.77137,33.20239 c 9.2e-4,-9.1e-4 2.38723,7.78253 -5.39979,3.41438 z m 112.95427,-73.492 c -9.6099,0 -19.11597,2.30371 -28.32407,5.05553 -8.38299,2.51026 -16.57184,5.88175 -24.06879,10.42033 -6.82649,4.13336 -12.85272,9.39207 -18.19495,15.30542 -9.48688,10.5016 -17.52561,22.68951 -22.36105,36.04564 -3.03399,8.3796 -7.0353,0.11738 -7.0353,0.11738 l -10.37293,-31.96983 c 1.64455,-9.43156 6.68202,-18.24461 12.03215,-26.04293 5.10632,-7.44615 11.12352,-15.28962 18.49856,-20.63297 7.09852,-5.18082 16.06393,-8.39992 24.39614,-10.93954 9.25662,-2.82293 19.35978,-4.98556 29.06789,-3.72704 l 28.35116,20.61379 c -9.2e-4,0 5.30837,5.75422 -1.98881,5.75422 z m 49.31598,-128.01816 c -5.92803,5.07247 -11.70142,10.29166 -16.66101,16.01313 -11.99828,13.86632 -21.05513,30.10293 -23.63312,48.42429 -2.20777,15.71064 -0.85331,32.08045 3.1638,47.52019 2.66265,10.23523 -6.44949,2.93807 -6.44949,2.93807 l -26.4504,-19.22999 c -0.0418,-0.10159 -0.0689,-0.20768 -0.11965,-0.30701 v -9.2e-4 c -4.42457,-8.59858 -5.56684,-18.88572 -5.86482,-28.41662 -0.28331,-9.07603 -0.0654,-19.0573 2.76198,-27.77439 2.6728,-8.36719 8.00825,-16.24565 13.23761,-23.21209 5.6515,-7.52856 12.31545,-14.99956 20.54607,-19.76388 h 37.86964 c 0,-0.002 6.8344,-0.67045 1.59939,3.80943 z m 0.33523,-11.9757 h -38.38321 c -8.37509,-4.26995 -15.16208,-11.62919 -20.88919,-18.932 -5.64247,-7.19332 -11.14272,-15.2727 -14.26475,-23.92545 -1.38832,-3.85007 -1.98542,-8.00826 -2.45045,-12.05585 -0.57565,-5.01377 -0.80252,-10.07268 -0.72463,-15.11918 0.14673,-9.59072 1.15354,-19.7966 5.20339,-28.6119 l 31.14586,-22.64548 c 0,0 4.51374,-2.60734 2.83083,3.02722 -4.7869,16.01652 -5.82983,33.36831 -3.32746,49.83857 2.74391,18.06064 11.84703,34.06135 23.75275,47.69853 5.42011,6.19667 11.60324,12.03666 18.35071,17.187 3.78459,2.65249 -1.24385,3.53854 -1.24385,3.53854 z"
       id="path1-8"
       style="stroke-width:1.12872" /><g
       id="g1"
       transform="matrix(1.1395189,0,0,1.1395189,10.641955,-7.1604046)"><path
         style="fill:#00afef;fill-opacity:1;stroke:none;stroke-width:9.95034;stroke-linecap:square;stroke-linejoin:round;stroke-miterlimit:2.4;paint-order:fill markers stroke"
         d="m 191.0977,240.20676 c 0,0 58.77926,-55.3737 90.31401,-80.51691 26.8162,-21.38102 83.85351,-59.62294 83.85351,-59.62294 l 4.7401,35.95859 c 0,0 -44.92938,32.94489 -66.71673,50.29157 -21.62672,17.2188 -63.49,53.35576 -63.49,53.35576"
         id="path8"
         sodipodi:nodetypes="caccac" /><path
         id="path3"
         d="m 0,0 c 0,0 1.468,73.959 -38.546,113.972 -50.545,50.572 -120.289,44.753 -120.289,44.753 h -227.626 v -317.456 h 227.626 c 0,0 69.744,-5.851 120.289,44.694 C 1.468,-74.019 0,0 0,0 m 108.531,0 c 0,0 4.927,-123.579 -66.307,-194.785 -71.233,-71.233 -201.059,-69.881 -201.059,-69.881 H -502.94 v 529.25 h 344.105 c 0,0 129.826,1.384 201.059,-69.849 C 113.458,123.53 108.531,0 108.531,0"
         style="fill:#492f92;fill-opacity:1;fill-rule:nonzero;stroke:none"
         transform="matrix(0.3463222,0,0,-0.37670863,284.38939,234.12694)"
         clip-path="url(#clipPath4)" /><path
         id="path5"
         d="m 0,0 c -3.914,27.684 2.94,59.501 22.302,95.128 36.986,68.058 119.907,150.021 261.541,243.212 l 99.995,61.872 c 24.608,14.348 50.54,28.954 77.836,43.789 11.195,-15.356 29.14,-25.445 49.609,-25.445 34.013,0 61.582,27.547 61.582,61.582 0,34.013 -27.569,61.571 -61.582,61.571 -4.713,0 -9.317,-0.674 -13.752,-1.67 -4.905,-0.822 -10.724,-2.633 -17.792,-5.93 C 428.351,510.373 381.14,486.412 337.503,462.335 L 238.826,403.737 C 68.408,294.38 -25.418,186.376 -55.982,95.128 -67.467,60.727 -69.985,28.79 -64.341,0 -32.89,-159.558 250.903,-221.035 664.386,-44.535 326.707,-175.247 20.146,-143.238 0,0"
         style="fill:#00afef;fill-opacity:1;fill-rule:nonzero;stroke:none"
         transform="matrix(0.37670863,0,0,-0.37670863,163.88145,345.0995)"
         clip-path="url(#clipPath6)" /><circle
         style="fill:#00afef;fill-opacity:1;stroke:none;stroke-width:13.2425;stroke-linecap:square;stroke-linejoin:round;stroke-miterlimit:2.4;paint-order:fill markers stroke"
         id="path7"
         cx="382.48865"
         cy="122.77898"
         r="28.520807" /></g></g></svg>
